<svg width="32" height="32" viewBox="0 0 32 32" xmlns="http://www.w3.org/2000/svg">
  <!-- Red gradient background -->
  <defs>
    <linearGradient id="redGradient" x1="0%" y1="0%" x2="100%" y2="100%">
      <stop offset="0%" style="stop-color:#e11d48;stop-opacity:1" />
      <stop offset="100%" style="stop-color:#be123c;stop-opacity:1" />
    </linearGradient>
    <filter id="glow" x="-50%" y="-50%" width="200%" height="200%">
      <feGaussianBlur in="SourceGraphic" stdDeviation="2" result="blur" />
      <feColorMatrix in="blur" mode="matrix" values="1 0 0 0 0  0 1 0 0 0  0 0 1 0 0  0 0 0 30 -8" result="glow" />
    </filter>
  </defs>
  
  <!-- Background circle with red gradient -->
  <circle cx="16" cy="16" r="14" fill="url(#redGradient)" filter="url(#glow)" />
  
  <!-- Elegant heart shape -->
  <path d="M16 26c-0.2 0-0.3-0.1-0.5-0.2C15.2 25.6 8 20.3 8 14c0-3 2.2-5.5 5-5.5 1.6 0 3.1 0.8 4 2.1 0.9-1.3 2.4-2.1 4-2.1 2.8 0 5 2.5 5 5.5 0 6.3-7.2 11.6-7.5 11.8-0.2 0.1-0.3 0.2-0.5 0.2z" 
        fill="#ffffff" 
        stroke="#ffffff" 
        stroke-width="0.5" />
  
  <!-- Subtle shine effect -->
  <ellipse cx="10" cy="10" rx="3" ry="2" fill="#ffffff" opacity="0.3" transform="rotate(-45 16 16)" />
</svg>